<svg id="Capa_1" enable-background="new 0 0 512 512" height="512" viewBox="0 0 512 512" width="512" xmlns="http://www.w3.org/2000/svg"><g><path d="m490.729 281.098-57.419-13.354c-4.979-1.156-8.713-5.166-9.514-10.215l-15.213-95.84c-2.133-13.437-13.556-23.188-27.16-23.188h-2.423v-2.501c0-15.163-12.337-27.5-27.5-27.5h-140.267c-14.542-33.504-47.943-57-86.733-57-49.583 0-90.367 38.385-94.203 87h-7.797c-12.406 0-22.5 10.094-22.5 22.5v106c0 4.143 3.357 7.5 7.5 7.5s7.5-3.357 7.5-7.5v-106c0-4.136 3.364-7.5 7.5-7.5h7.797c3.835 48.615 44.62 87 94.203 87s90.367-38.385 94.203-87h162.721c6.184 0 11.376 4.433 12.346 10.54l15.213 95.839c1.762 11.107 9.979 19.929 20.931 22.475l52.229 12.146h-474.643c-4.143 0-7.5 3.357-7.5 7.5v91c0 12.406 10.094 22.5 22.5 22.5h33.044c3.652 25.407 25.554 45 51.956 45s48.304-19.593 51.956-45h120.044c4.143 0 7.5-3.357 7.5-7.5s-3.357-7.5-7.5-7.5h-120.044c-.761-5.294-2.31-10.336-4.532-15h202.152c-2.222 4.664-3.771 9.706-4.532 15h-38.044c-4.143 0-7.5 3.357-7.5 7.5s3.357 7.5 7.5 7.5h38.044c3.652 25.407 25.554 45 51.956 45s48.304-19.593 51.956-45h33.044c12.406 0 22.5-10.094 22.5-22.5v-85.117c0-12.859-8.747-23.873-21.271-26.785zm-139.229-157.598c6.893 0 12.5 5.607 12.5 12.5v2.5h-145.297c-.404-5.125-1.224-10.135-2.417-15zm-227 102c-43.837 0-79.5-35.663-79.5-79.5s35.663-79.5 79.5-79.5 79.5 35.663 79.5 79.5-35.663 79.5-79.5 79.5zm342.5 149.5v25.5h-10.544c-3.652-25.407-25.554-45-51.956-45-14.269 0-27.219 5.73-36.692 15h-223.616c-9.472-9.27-22.423-15-36.692-15-26.401 0-48.304 19.593-51.956 45h-10.544v-25.5c0-9.649-7.851-17.5-17.5-17.5h-12.5v-15h482v15h-12.5c-9.649 0-17.5 7.851-17.5 17.5zm30-65.5v18h-482v-18zm-482 83.5v-20.5h12.5c1.379 0 2.5 1.121 2.5 2.5v25.5h-7.5c-4.136 0-7.5-3.364-7.5-7.5zm92.5 52.5c-20.678 0-37.5-16.822-37.5-37.5s16.822-37.5 37.5-37.5 37.5 16.822 37.5 37.5-16.822 37.5-37.5 37.5zm297 0c-20.678 0-37.5-16.822-37.5-37.5s16.822-37.5 37.5-37.5 37.5 16.822 37.5 37.5-16.822 37.5-37.5 37.5zm85-45h-7.5v-25.5c0-1.379 1.121-2.5 2.5-2.5h12.5v20.5c0 4.136-3.364 7.5-7.5 7.5z"/><path d="m404.5 385.5c-12.406 0-22.5 10.094-22.5 22.5s10.094 22.5 22.5 22.5 22.5-10.094 22.5-22.5-10.094-22.5-22.5-22.5zm0 30c-4.136 0-7.5-3.364-7.5-7.5s3.364-7.5 7.5-7.5 7.5 3.364 7.5 7.5-3.364 7.5-7.5 7.5z"/><path d="m107.5 385.5c-12.406 0-22.5 10.094-22.5 22.5s10.094 22.5 22.5 22.5 22.5-10.094 22.5-22.5-10.094-22.5-22.5-22.5zm0 30c-4.136 0-7.5-3.364-7.5-7.5s3.364-7.5 7.5-7.5 7.5 3.364 7.5 7.5-3.364 7.5-7.5 7.5z"/><path d="m382.658 279.5c3.658 0 7.12-1.594 9.498-4.373 2.377-2.779 3.417-6.445 2.852-10.057l-13.438-85.998c-.956-6.126-6.149-10.572-12.35-10.572h-49.72c-6.893 0-12.5 5.607-12.5 12.5v86c0 6.893 5.607 12.5 12.5 12.5zm-60.658-96h45.08l12.656 81h-57.736z"/><path d="m279.5 279.5c6.893 0 12.5-5.607 12.5-12.5v-86c0-6.893-5.607-12.5-12.5-12.5h-35c-6.893 0-12.5 5.607-12.5 12.5v86c0 6.893 5.607 12.5 12.5 12.5zm-32.5-96h30v81h-30z"/><path d="m146 123.5v-29.5c0-6.893-5.607-12.5-12.5-12.5h-20c-6.893 0-12.5 5.607-12.5 12.5v29.5h-29.5c-6.893 0-12.5 5.607-12.5 12.5v20c0 6.893 5.607 12.5 12.5 12.5h29.5v29.5c0 6.893 5.607 12.5 12.5 12.5h20c6.893 0 12.5-5.607 12.5-12.5v-29.5h29.5c6.893 0 12.5-5.607 12.5-12.5v-20c0-6.893-5.607-12.5-12.5-12.5zm27 30h-29.5c-6.893 0-12.5 5.607-12.5 12.5v29.5h-15v-29.5c0-6.893-5.607-12.5-12.5-12.5h-29.5v-15h29.5c6.893 0 12.5-5.607 12.5-12.5v-29.5h15v29.5c0 6.893 5.607 12.5 12.5 12.5h29.5z"/></g></svg>